<?xml version="1.0" encoding="UTF-8"?>
<svg id="Layer_1" data-name="Layer 1" xmlns="http://www.w3.org/2000/svg" viewBox="0 0 183.21 183.21">
  <defs>
    <style>
      .cls-1 {
        stroke-width: .78px;
      }

      .cls-1, .cls-2, .cls-3, .cls-4, .cls-5, .cls-6, .cls-7, .cls-8, .cls-9, .cls-10 {
        stroke-miterlimit: 10;
      }

      .cls-1, .cls-2, .cls-3, .cls-4, .cls-5, .cls-6, .cls-7, .cls-9, .cls-10 {
        fill: none;
      }

      .cls-1, .cls-3, .cls-4, .cls-5, .cls-6, .cls-7, .cls-9, .cls-10 {
        stroke: #fff;
      }

      .cls-2 {
        font-family: Futura-Bold, Futura;
        font-size: 16.72px;
        font-weight: 700;
        stroke: #e6e7e8;
        stroke-width: .7px;
      }

      .cls-11 {
        fill: #6d6e71;
      }

      .cls-12 {
        fill: #58595b;
      }

      .cls-3 {
        stroke-width: 1.28px;
      }

      .cls-4 {
        stroke-width: .65px;
      }

      .cls-5 {
        stroke-width: .9px;
      }

      .cls-6 {
        stroke-width: 1.41px;
      }

      .cls-7 {
        stroke-width: .7px;
      }

      .cls-8 {
        fill: #414042;
        stroke: #231f20;
        stroke-width: 2.79px;
      }

      .cls-9 {
        stroke-width: 1.03px;
      }

      .cls-10 {
        stroke-width: 1.15px;
      }
    </style>
  </defs>
  <circle class="cls-8" cx="91.61" cy="91.61" r="90.21"/>
  <circle class="cls-12" cx="91.08" cy="90.73" r="31.35"/>
  <circle class="cls-11" cx="91.08" cy="90.73" r="27.52"/>
  <text class="cls-2" transform="translate(68.08 98.54) rotate(-17.14)"><tspan x="0" y="0">B</tspan></text>
  <text class="cls-2" transform="translate(78.87 95.09) rotate(-5.3)"><tspan x="0" y="0">A</tspan></text>
  <text class="cls-2" transform="translate(92.14 93.98) rotate(6.16)"><tspan x="0" y="0">S</tspan></text>
  <text class="cls-2" transform="translate(102.86 95.14) rotate(16.61)"><tspan x="0" y="0">S</tspan></text>
  <g id="upper-reflection">
    <path class="cls-4" d="m105.26,55.8c10.73,4.09,19.15,12.88,22.76,23.84"/>
    <path class="cls-1" d="m107.88,48.59c12.86,4.87,22.96,15.33,27.34,28.42"/>
    <path class="cls-7" d="m110.04,42.64c14.83,5.33,26.59,17.09,31.92,31.92"/>
    <path class="cls-9" d="m112.88,34.84c16.91,6.34,30.23,20.02,36.09,37.17"/>
    <path class="cls-10" d="m115.39,27.96c18.94,7.08,33.87,22.37,40.46,41.54"/>
    <path class="cls-3" d="m117.81,20.69c21.16,7.82,37.85,24.84,45.24,46.2"/>
    <path class="cls-6" d="m120.63,13.56c23.18,8.63,41.49,27.29,49.63,50.7"/>
  </g>
  <g id="lower-reflection">
    <path class="cls-4" d="m79.04,127.81c-10.53-3.65-18.97-11.76-23.06-22.07"/>
    <path class="cls-1" d="m76.42,135.02c-12.62-4.41-22.72-14.17-27.61-26.55"/>
    <path class="cls-5" d="m73.82,142.17c-14.51-5.35-26.04-16.87-31.38-31.38"/>
    <path class="cls-9" d="m71.42,148.77c-16.67-5.89-29.99-18.86-36.36-35.3"/>
    <path class="cls-10" d="m68.92,155.64c-18.7-6.62-33.63-21.21-40.73-39.67"/>
    <path class="cls-3" d="m66.29,162.85c-20.93-7.44-37.62-23.84-45.44-44.59"/>
    <path class="cls-6" d="m63.57,170.01c-22.89-8.19-41.15-26.12-49.79-48.8"/>
  </g>
</svg>