<?xml version="1.0" encoding="UTF-8"?>
<svg id="Layer_2" data-name="Layer 2" xmlns="http://www.w3.org/2000/svg" viewBox="0 0 120.13 130">
  <defs>
    <style>
      .cls-1 {
        fill: none;
      }

      .cls-2, .cls-3 {
        stroke-width: .92px;
      }

      .cls-2, .cls-3, .cls-4 {
        stroke: #231f20;
        stroke-miterlimit: 10;
      }

      .cls-2, .cls-5 {
        fill: #58595b;
      }

      .cls-3, .cls-4 {
        fill: #6d6e71;
      }

      .cls-6 {
        fill: #fff;
      }

      .cls-7 {
        fill: #231f20;
      }

      .cls-4 {
        stroke-width: 1px;
      }
    </style>
  </defs>
  <g id="character">
    <g>
      <rect class="cls-6" x="58.37" y="100" width="37" height="20"/>
      <path class="cls-7" d="m83.92,1.87c48.44,8.13,39.44,83.13,23.44,89.13l-8.99.42"/>
      <line class="cls-7" x1="86.22" y1="4.62" x2="98.62" y2="91.53"/>
      <path class="cls-6" d="m109.18,52.38c0,28.15-12.26,50.98-40.42,50.98s-50.52-22.82-50.52-50.98S40.61,1.41,68.77,1.41s40.42,22.82,40.42,50.98Z"/>
      <ellipse class="cls-7" cx="63.26" cy="51.01" rx="4.59" ry="5.97"/>
      <ellipse class="cls-7" cx="98.62" cy="51.01" rx="3.21" ry="5.97"/>
      <path class="cls-7" d="m87.14,130l11.11-4.1c-5.83-10.63,3.37-22.86,18.28-35.68-10.27,2.25-21.21-4.91-21.21-4.91"/>
      <path class="cls-4" d="m82.55,7.38c-.5,18.19,8.03,24.93,21.59,23.88C101.58,9.81,87.02.08,82.55,7.38Z"/>
      <path class="cls-3" d="m72.3,18.84c-4.97,10.77-2.25,18.18,5.2,21.15-2.08-8.22-1.68-17.73,0-27.89"/>
      <path class="cls-3" d="m76.09,27.9c2.75,5.72,6.1,9.97,11.05,10.37-2.82-8.48-4.52-17.91-5.53-27.91-5.08,3.08-7.35,8.56-5.53,17.53Z"/>
      <path class="cls-2" d="m103.54,22.36c5.31,7.34,4.58,14.69-2.17,22.03.76-9.41,1.48-16.76,2.17-22.03Z"/>
      <path class="cls-2" d="m96.16,11.63c4.87,10.81,9.16,16.92,19.29,15.9l-19.29-15.9Z"/>
      <path class="cls-7" d="m16.41,84.53s11.02,19.6,1.84,20.82c-9.19,1.22-18.25,22.13-18.25,22.13l68.31,2.51c-8.41-13.54-5.39-27.07,3.21-42.71-4.59,3.91-10.2,9.33-28.47,8.27,15.42-47.33,8.02-47.57,43.17-90.93l5.51-.92c-19.13-6.94-36.69-2.44-52.73,0-21.21,3.22-20.29,11.49-18.43,15.91,6.66,15.84-12.33,35.96-4.16,64.93Zm13.72,10.98s.05.03.07.05"/>
      <path class="cls-7" d="m50.46,70.88l-7.41,24.67,25.72,7.81c33.28.95,32.01-14.52,38.6-29.36-8.59-15.58-30.7-12.95-56.91-3.12"/>
      <path class="cls-1" d="m88.81,68.42c6.34,0,6.34,29.93,0,29.93"/>
      <path class="cls-4" d="m86.22,4.62c3.13,12.73,7.9,22.24,16.59,24.05"/>
      <path class="cls-5" d="m87.14,130l4.05-19.11c-9.19,7.36-4.32,9.61-27.93,0-1.63,7.04-.87,13.59,5.05,19.11h18.83Z"/>
    </g>
  </g>
</svg>