<?xml version="1.0" encoding="UTF-8"?>
<svg id="Layer_2" data-name="Layer 2" xmlns="http://www.w3.org/2000/svg" viewBox="0 0 109.22 114.74">
  <defs>
    <style>
      .cls-1 {
        fill: #231f20;
      }

      .cls-2 {
        fill: #58595b;
      }
    </style>
  </defs>
  <g id="double-eighth-note">
    <path class="cls-1" d="m92.23,88.01c-7.2-1.56-14.05-.36-18.31,2.74V11.68c0-.48-.39-.86-.86-.86h-2.39s-.03,0-.05,0L7.92,3.66c-.09-.03-.18-.05-.28-.05h-2.39c-.48,0-.86.39-.86.86v84.89c-.02.07-.04.14-.05.21-1.58,7.19,5.93,14.93,16.77,17.28,10.84,2.35,20.91-1.57,22.48-8.76,1.58-7.19-5.93-14.93-16.77-17.28-7.2-1.56-14.05-.36-18.31,2.74V7.11l61.3,7.89v81.56c-.02.07-.04.14-.05.21-1.58,7.19,5.93,14.93,16.77,17.28,10.84,2.35,20.91-1.57,22.48-8.76,1.58-7.19-5.93-14.93-16.77-17.28Z"/>
    <path class="cls-2" d="m88.11,84.4c-7.2-1.56-14.05-.36-18.31,2.74V8.07c0-.48-.39-.86-.86-.86h-2.39s-.03,0-.05,0L3.8.05c-.09-.03-.18-.05-.28-.05H1.13C.65,0,.26.39.26.86v84.89c-.02.07-.04.14-.05.21-1.58,7.19,5.93,14.93,16.77,17.28,10.84,2.35,20.91-1.57,22.48-8.76,1.58-7.19-5.93-14.93-16.77-17.28-7.2-1.56-14.05-.36-18.31,2.74V3.51l61.3,7.89v81.56c-.02.07-.04.14-.05.21-1.58,7.19,5.93,14.93,16.77,17.28,10.84,2.35,20.91-1.57,22.48-8.76,1.58-7.19-5.93-14.93-16.77-17.28Z"/>
  </g>
</svg>